<svg xmlns="http://www.w3.org/2000/svg" viewBox="0 0 430 219.08"><defs><style>.cls-1{fill:#21c4ff;opacity:0.1;}.cls-2{fill:#2d55ff;}.cls-3{fill:#ffca00;}.cls-4{fill:#74b4ff;}.cls-5{fill:#b6e8ff;}.cls-21,.cls-6{fill:#fff;}.cls-12,.cls-20,.cls-7{fill:none;}.cls-20,.cls-7{stroke:#000;stroke-miterlimit:10;}.cls-12,.cls-13,.cls-17,.cls-20,.cls-21,.cls-7{stroke-linecap:round;}.cls-12,.cls-13,.cls-17,.cls-21,.cls-7{stroke-width:0.75px;}.cls-8{fill:#ff9600;}.cls-9{fill:#ffcb00;}.cls-10{fill:#74d43d;}.cls-11,.cls-13{fill:#ffac00;}.cls-12,.cls-13,.cls-17,.cls-21{stroke:#363d40;stroke-linejoin:round;}.cls-14{fill:#ffd7d8;}.cls-15{fill:#e9e9ed;}.cls-16{fill:#1c56ff;}.cls-17{fill:#fcbc8a;}.cls-18{fill:#363d40;}.cls-19{fill:#bae2ff;}.cls-20{stroke-width:0.34px;}</style></defs><g id="Layer_2" data-name="Layer 2"><g id="Layer_1-2" data-name="Layer 1"><path class="cls-1" d="M429.35,137.67c-10.78,74.16-165.57,81.41-266.27,81.41S-4.82,186.86.27,144.46C9.2,70.06,84.86,69.92,178.35,32.52,273.75-5.64,314,2,356.43,49.48,387.89,84.72,436.14,91,429.35,137.67Z"/><polygon class="cls-2" points="355.13 114.05 289 114.05 311.07 98.68 377.2 98.68 355.13 114.05"/><path class="cls-3" d="M377.2,98.68l-22.07,15.37H289V169.7a3.24,3.24,0,0,0,3.25,3.25h60a9.07,9.07,0,0,0,5.19-1.63l17.88-12.45a4.32,4.32,0,0,0,1.85-3.54Z"/><path class="cls-4" d="M377.2,98.68l-22.07,15.37H289V169.7a3.24,3.24,0,0,0,3.25,3.25h60a9.07,9.07,0,0,0,5.19-1.63l17.88-12.45a4.32,4.32,0,0,0,1.85-3.54Z"/><path class="cls-5" d="M355.13,114.05H289l-10.93,18.82a1,1,0,0,0,.9,1.57h62.2a3.67,3.67,0,0,0,3.18-1.84Z"/><path class="cls-5" d="M384,118.41a2.14,2.14,0,0,0,.63-2.5L377.2,98.69h0l-22.07,15.36,7.64,17.83a2.13,2.13,0,0,0,3.29.82Z"/><polygon class="cls-6" points="313.25 114.05 318.83 83.87 372.33 83.87 368.81 104.45 355.13 114.05 313.25 114.05"/><polyline class="cls-7" points="368.81 104.45 372.33 83.87 318.83 83.87 317.85 89.16"/><line class="cls-7" x1="355.13" y1="129.43" x2="355.13" y2="164.47"/><path class="cls-7" d="M308.59,173h43.69a9.07,9.07,0,0,0,5.19-1.63l17.88-12.45a4.32,4.32,0,0,0,1.85-3.54V144.06"/><path class="cls-7" d="M285,134.45h56.18a3.67,3.67,0,0,0,3.18-1.84l10.76-18.56"/><path class="cls-7" d="M310.58,94.8h33.28a14.82,14.82,0,0,0,7.51-2c1.39-.82,2.55-1.86,2.55-3.06a2.67,2.67,0,0,0-5.32-.35c-.35,1.56,1.12,2.75,2.88,3.58a17.6,17.6,0,0,0,7.5,1.57H366"/><path class="cls-2" d="M224.51,88.76S236.59,80.94,194.88,33c-6.18-7.11-11-15.48-8.51-24.58,1.88-7,6.15-12.14,15.7-5C216.2,13.92,223,16.94,227.58,22.86c1.87,2.4,7.29,14.82,8.12,17.75A32,32,0,0,1,237,53.4c-.86,6-3.78,15.84-5.28,20.7a24.74,24.74,0,0,1-2,4.73c-1.61,2.88-4.14,8.49-2,12.36"/><path class="cls-7" d="M188.06,4.12S178.1,19,204,42"/><path class="cls-8" d="M219,165.06h32.28a0,0,0,0,1,0,0v1.32a5.58,5.58,0,0,1-5.58,5.58H224.62a5.58,5.58,0,0,1-5.58-5.58v-1.32A0,0,0,0,1,219,165.06Z"/><path class="cls-9" d="M208.44,119.8h53.35a0,0,0,0,1,0,0v29.73a19.07,19.07,0,0,1-19.07,19.07h-15.2a19.07,19.07,0,0,1-19.07-19.07V119.8A0,0,0,0,1,208.44,119.8Z"/><ellipse class="cls-9" cx="235.11" cy="119.8" rx="26.68" ry="6.51"/><ellipse class="cls-8" cx="235.17" cy="119.8" rx="23.19" ry="4.83"/><path class="cls-7" d="M219,125.88s21.81,4.33,37.76-1.24"/><path class="cls-10" d="M175.08,67.41a12.43,12.43,0,0,1-7.7-10.68c-.15-3.21,1.08-6.38,5.86-7.67,11.14-3,11.57-2.53,21.43,4.1s21.94,6.31,31.08,15.64c10.63,10.86,1.3,21.82,4.54,35.74.41,1.74,6.08,7.86,6.91,9.56l-1.57.87-6.57-7.83a141.48,141.48,0,0,0-53-39.31Z"/><path class="cls-10" d="M235.17,120.18s.11-4.09,5.58-11,6.58-5,8.51-7.28c7.07-8.33,20.4-.88,17.65.88s-25.47,7.78-27.73,11.37a30.45,30.45,0,0,0-2.73,6.52Z"/><path class="cls-7" d="M210,59.94s25.2,6.62,20.64,25.86c0,0-2.81,16.1.8,20.71l4.66,5.93"/><path class="cls-5" d="M291.75,43.29a12.44,12.44,0,0,0,3.74-12.62c-.92-3.08-3.13-5.67-8.06-5.31-11.51.85-25-.52-32.11,9s-12.72,2.77-19.19,14.12c-5.16,9,1,31.93,2.52,46.14.19,1.78-3.71,24.39-3.94,26.26l1.78.31,4.17-24.53C247.52,61.72,274.48,59,291,44Z"/><path class="cls-7" d="M252.93,37s0,.66-3.82,2.49c-1.68.8-4.49,1.21-7.72,2.94-11.81,6.33-5.32,35.28-5.32,35.28l2,13.26a24.14,24.14,0,0,1,0,7.25L234.85,120a.94.94,0,0,0,.77,1.07h0a.93.93,0,0,0,1.06-.69c.49-1.89,1.86-6.41,4.13-7.58,2.9-1.49,14-5.64,14-5.64"/><path class="cls-7" d="M252.93,71A59.24,59.24,0,0,1,273.6,55.71"/><path class="cls-11" d="M157.3,165.94s3.64,13.35,8.66,7.27c0,0,6.75,7,9.84-1.63S162.28,150,162.28,150Z"/><path class="cls-12" d="M158.25,167.93s2.11,9.25,8.07,6.13"/><path class="cls-12" d="M165.11,172.13s4,6.17,8.72,3,.37-13.84-3.51-17.16"/><path class="cls-13" d="M78.52,163.26s-3.14,2.42-3.61,4.58,1.2,5.67,7,4.34h0a7.34,7.34,0,0,1,6.48,1c2.88,2.26,7.41,3,10.74.48,3-2.26,2.82-5.57,2.61-8.63s-17.57-6-17.57-6Z"/><path class="cls-6" d="M75.35,63.28s-1.2-7.44,8.53-18.14a38,38,0,0,1,22.48-11.86L126,29.81l12.75-3.19L148,22.85l1.2.4.41,1.58-5.05,9.58s.41-.76,2.35,0,13,4.94,19.72,14.91,11.65,25.26,10.52,39.18h0L176.78,94s7.95,8.54,8.28,20.38h0s13.42-7.46,16.4-8.54c9.93-3.59,7.54,3,7.54,3a12.56,12.56,0,0,1-6,5.84h0s6.39-1.78,9.51.58,2.71,4.41,1.72,6.62-6.16,8.61-12.2,11.28a135.72,135.72,0,0,1-15.26,5.2s2.4,13.06-5.88,21.66-22.7,8.72-22.7,8.72a153.37,153.37,0,0,1-15.62-2.83c-5.67-1.53-12.79-4.22-27.86-1.45s-18,4.3-30.78.42S64,145,64,145s-2.3-2.64-2.77-17c-.64-19.5,10.11-35.22,10.11-35.22s.51-.25-.68-2.19S63.86,80,68,71.84,75.35,63.28,75.35,63.28Z"/><path class="cls-14" d="M84.94,75.57c-.06,1.25-2.18,2.17-4.73,2.05s-4.58-1.24-4.51-2.5,2.18-2.17,4.73-2S85,74.32,84.94,75.57Z"/><ellipse class="cls-14" cx="121.34" cy="77.88" rx="4.94" ry="2.64"/><ellipse class="cls-15" cx="145.01" cy="57.72" rx="10.27" ry="14.87" transform="translate(3.98 124.59) rotate(-47.07)"/><line class="cls-16" x1="61.76" y1="119.22" x2="69.32" y2="96.4"/><path class="cls-17" d="M103.22,73.44c-.37-1.46-2-2-3.21-2.12s-2.91.12-3.55,1.48c-.79,1.71,1,4.18,3,4.37S103.68,75.27,103.22,73.44Z"/><ellipse class="cls-18" cx="111.79" cy="71.66" rx="3.38" ry="2.53" transform="translate(29.96 176.24) rotate(-84.61)"/><ellipse class="cls-18" cx="89.81" cy="69.7" rx="3.38" ry="2.53" transform="translate(11.99 152.57) rotate(-84.61)"/><path class="cls-12" d="M75.35,63.28s2.31-23,27.57-29.36"/><path class="cls-12" d="M106.36,33.28S135,29.39,148,22.85c0,0,2.66-1,1.61,2s-5.05,9.58-5.05,9.58"/><path class="cls-12" d="M145,33.63S181.17,42,176.78,94a31.35,31.35,0,0,1,8.1,22.46"/><path class="cls-12" d="M200.41,115.55c5-3.11,19.88-3.19,12.31,8.68s-26,14.13-26,14.13,5.62,26.37-25.24,30.12c0,0-6.24.58-16.55-2s-15.79-5.14-34.35-1.27-29.49.43-37-6.69a39.63,39.63,0,0,1-11.85-31.69"/><path class="cls-12" d="M203.86,114.23s7-4.74,4.93-8.47-14.57,1.66-23.73,8.66"/><path class="cls-12" d="M68.74,98.16a16.23,16.23,0,0,1,2.6-5.44S57,74.54,77.48,61.8"/><path class="cls-2" d="M79.36,89.29l-.26-3A32.69,32.69,0,0,1,91,100.76c4,9.64-11.39-8.89-11.39-8.89Z"/><path class="cls-19" d="M132.5,133.92c-22.52.62-42.62,7.9-42.62,7.9-6.21-6.78-16.57-9.9-16.57-9.9l.88-43.4s9.58,1,16.78,12.24a100.38,100.38,0,0,1,42.61-7.89Z"/><line class="cls-20" x1="90.67" y1="112.62" x2="90.35" y2="137.86"/><line class="cls-20" x1="90.85" y1="104.18" x2="90.77" y2="108.55"/><path class="cls-21" d="M61.25,124.05a2,2,0,0,1-.81-2.83s.55-.54-.33-1.36-6-8.71,3.1-17.37,14-4.79,15.22-.65-.74,13-5,18"/><path class="cls-21" d="M147.37,130.64s-17.37-3.14-23-12.86c-6-10.48-.9-16.85,5.12-17.89s16.63,5.45,21.52,3.76"/></g></g></svg>