<svg xmlns="http://www.w3.org/2000/svg" viewBox="0 0 552.42 150.61"><defs><style>.cls-1{fill:#18191b;}.cls-2{fill:#999;stroke:#999;stroke-miterlimit:10;stroke-width:1.26px;}</style></defs><g id="Layer_2" data-name="Layer 2"><g id="Layer_1-2" data-name="Layer 1"><path class="cls-1" d="M45.34,31.66q17.67,0,29.35,12.6Q86.53,57,86.53,75.15T74.69,105.89Q63,118.49,45.18,118.49q-17.52,0-28.27-13.52v45.64H0v-117H16.91v12Q28.12,31.66,45.34,31.66ZM69.47,75a27.91,27.91,0,0,0-7.38-19.67q-7.38-8.14-19.21-8.15T23.67,55.33A28.61,28.61,0,0,0,16.44,75q0,11.84,7.23,20,7.38,8,19.21,8t19.21-8Q69.47,87,69.47,75Z"/><path class="cls-1" d="M111.58,22.75a11.39,11.39,0,0,1-8.3-3.31,11,11,0,0,1-3.38-8.22,10.57,10.57,0,0,1,3.38-8A11.57,11.57,0,0,1,111.58,0a11,11,0,0,1,11.21,11.22,11.29,11.29,0,0,1-3.22,8.22A10.71,10.71,0,0,1,111.58,22.75Zm8.14,10.91V116.5h-16.9V33.66Z"/><path class="cls-1" d="M157.68,116.5h-16.9V33.66h16.59V45.34A26,26,0,0,1,168,35.19a32.86,32.86,0,0,1,15.67-3.68q13.68,0,23.06,8.91,9.53,9.07,9.53,25.67V116.5H199.18V70.85q0-11.22-5.38-17.44t-14.45-6.23a20.12,20.12,0,0,0-15.6,6.69q-6.08,6.68-6.07,17.29Z"/><path class="cls-1" d="M275.1,118.34q-19.37,0-31.51-12.14-12.3-12.3-12.29-31,0-18.9,12.44-31.19,12.6-12.3,32-12.3a44.83,44.83,0,0,1,22.82,6,37.15,37.15,0,0,1,15.3,16.14l-14,7.84A29.56,29.56,0,0,0,289.62,51.1a25.83,25.83,0,0,0-13.75-3.92,26.45,26.45,0,0,0-19.68,8,27.75,27.75,0,0,0-7.83,20A27.65,27.65,0,0,0,256,94.83q7.53,8,19.21,8a27.35,27.35,0,0,0,14.14-4,25.57,25.57,0,0,0,10-10.14l14,8.14a38.31,38.31,0,0,1-15.45,15.6A45.21,45.21,0,0,1,275.1,118.34Z"/><path class="cls-1" d="M344.56,116.5h-16.9V0H344.1V44.11a25.25,25.25,0,0,1,10.68-9.22,35.28,35.28,0,0,1,15.6-3.38q13.68,0,23.06,8.91t9.37,25.67V116.5H385.9V70.85q0-11.22-5.37-17.44t-14.45-6.23a20,20,0,0,0-15.52,6.61q-6,6.62-6,17.21Z"/><path class="cls-2" d="M438,55.73c.13-7.53,1.93-16.16,4.43-24a40.16,40.16,0,0,1-4.95.23,2.29,2.29,0,0,1-2.44-2.42c0-.31.24-1.95,2.51-1.91a26.91,26.91,0,0,0,6.61-.72c2.38-6.56,9.15-22.74,18.74-22.57,4.13.07,6.56,2.58,6.48,7.12s-3.44,8.6-5.65,10.73c-4.3,4.26-10.22,6.84-16,8.29a82.83,82.83,0,0,0-5.17,25.28c-.13,7.43,1.85,12.31,6.8,12.39s11.71-9.39,11.88-19.39c.08-4.95-1.61-8.59-5.22-8.65A5.78,5.78,0,0,0,451.24,42a2.46,2.46,0,0,1-1.77.69,2.29,2.29,0,0,1-2.23-2.31c0-1.44,2.77-4.9,9.06-4.79s9.6,5.52,9.47,13.25c-.2,11.35-8.23,23.17-16.59,23C444.34,71.82,437.77,69.75,438,55.73ZM460.81,19c2-1.93,3.9-5.3,3.94-7.36,0-1.76-.78-3-2.12-3-4-.07-8.88,6.86-13.38,17.1A28.72,28.72,0,0,0,460.81,19Z"/><path class="cls-2" d="M492.55,44.48c0-2.06-1.38-3.53-4.06-3.57-5.16-.09-12.59,6.38-12.78,17.41-.06,3.51,1,9.82,8.39,9.94A9.44,9.44,0,0,0,491.38,65a2,2,0,0,1,1.66-.79,2.14,2.14,0,0,1,2,2.4c0,2-5.05,6-11.34,5.9-7.83-.14-12.8-5.48-12.65-14.24.22-13,9.45-21.91,17.59-21.78,6.19.11,8.6,4,8.53,8.09-.14,8.14-8.76,12-14.85,11.92a2.15,2.15,0,0,1-2.23-2.21A2.36,2.36,0,0,1,482.42,52C487.27,52,492.47,49.12,492.55,44.48Z"/><path class="cls-2" d="M513,73c-.1,0-.61-.11-.72-.11-5.14-.91-7.54-5.18-7.41-13.12a75,75,0,0,1,2.9-18.52c-3,0-4.14.45-5.58.42a1.56,1.56,0,0,1-1.41-1.77c.05-2.89,4.38-2.92,8.09-3,.88-3.39,2.2-8.11,3.4-12.21a2.45,2.45,0,0,1,2.09-1.62,2.15,2.15,0,0,1,2.34,2.1,3.36,3.36,0,0,1-.22,1.13c-1.09,3.08-2.52,8.52-3.07,10.78,1.44,0,3.5.16,6.28.31,1.13.23,2.25,1.07,2.23,2.21a1.93,1.93,0,0,1-2,2c-2,0-5.46-.3-7.42-.44a69.86,69.86,0,0,0-3.09,18.3c-.14,8.15,2.84,8.72,3.87,8.94a2.16,2.16,0,0,1,2,2.2A2.45,2.45,0,0,1,513,73Z"/><path class="cls-2" d="M551.79,47.86a71.31,71.31,0,0,1-1.55,12.35,69.62,69.62,0,0,0-1.17,8.23,3.93,3.93,0,0,0,.19,1.34,2.63,2.63,0,0,1,.39,1.25,2.37,2.37,0,0,1-2.41,2.12c-2.27,0-2.84-2.93-2.8-5a79.58,79.58,0,0,1,1.28-8.74A75.35,75.35,0,0,0,547.25,48c.09-5-2.56-6.85-5.24-6.9-7.84-.13-13.92,11.73-14.08,21.11-.06,3.82,1.65,6.53,4.33,6.57s4.88-2.39,6-5.16a2.11,2.11,0,0,1,2-1.3,2.14,2.14,0,0,1,2.13,2.3c0,1.75-3.45,8.61-10.87,8.48-4.12-.07-8.3-3.24-8.17-11,.18-10.72,7.86-25.54,19.2-25.35C548.37,36.87,551.91,40.74,551.79,47.86Z"/></g></g></svg>